<?xml version="1.0" ?><!DOCTYPE svg  PUBLIC '-//W3C//DTD SVG 1.1//EN'  'http://www.w3.org/Graphics/SVG/1.1/DTD/svg11.dtd'><svg enable-background="new 0 0 500 500" height="500px" id="Layer_1" version="1.1" viewBox="0 0 500 500" width="500px" xml:space="preserve" xmlns="http://www.w3.org/2000/svg" xmlns:xlink="http://www.w3.org/1999/xlink"><g><path d="M355.491,276.615v-98.616c0-14.123-11.449-25.572-25.572-25.572H170.215    c-14.123,0-25.572,11.449-25.572,25.572v98.616c0,14.123,11.449,25.572,25.572,25.572h48.929l13.499,21.082l8.878,24.302h66.968    l13.262-45.385h8.168C344.042,302.186,355.491,290.738,355.491,276.615z M162.012,255.868v-77.869c0-4.523,3.68-8.202,8.202-8.202    h159.704c4.523,0,8.202,3.68,8.202,8.202v77.869c0,4.523-3.68,8.202-8.202,8.202h-4.536v-4.913    c0.025-1.422-0.021-11.483-6.047-17.647c-2.926-2.993-6.816-4.575-11.251-4.575c-1.504,0-2.941,0.183-4.291,0.531    c-0.771-1.434-1.729-2.814-2.927-4.038c-2.926-2.993-6.817-4.575-11.251-4.575c-1.246,0-2.446,0.123-3.589,0.363    c-0.864-1.925-2.03-3.809-3.609-5.424c-2.925-2.993-6.816-4.575-11.251-4.575c-1.751,0-3.41,0.248-4.948,0.718v-14.149    c0.02-1.162-0.009-8.521-3.636-14.499l0.046-0.154l-1.507-1.972c-2.756-3.608-7.034-5.595-12.045-5.595c-0.003,0-0.007,0-0.01,0    h-0.146c-6.105,0-11.008,4.574-11.548,5.096l-0.334,0.357c-5.151,6.097-4.726,15.007-4.564,16.944v47.612    c-1.888-1.711-4.144-3.366-6.714-4.56l-0.036-0.126l-2.323-0.845c-4.85-1.765-10.178-1.034-15.031,2.073l-0.132,0.084    c-5.875,3.762-7.789,11.244-7.988,12.085l-0.088,0.481c-0.058,0.436-0.095,0.871-0.121,1.303h-29.828    C165.692,264.07,162.012,260.39,162.012,255.868z M301.179,337.819H248.34l-6.906-18.906l-26.96-42.104l-0.294-0.411    c-1.308-1.641-4.861-7.319-4.379-12.091c0.333-1.182,1.561-4.47,3.598-5.83l0.209-0.13c0.047-0.03,0.091-0.061,0.136-0.091    c1.824-1.147,3.574-1.596,5.22-1.334l1.348,0.416c3.485,1.077,6.684,4.288,8.65,6.731h-0.001c0.74,0.92,1.311,1.735,1.648,2.281    l11.619,17.661v-0.001l0.001,0.001V205.74l-0.024-0.485c-0.169-1.764-0.104-6.862,2.115-9.731c0.92-0.8,2.925-2.152,4.509-2.204    l0.172,0.001c0.056,0,0.112-0.001,0.166-0.003c1.542,0.014,2.762,0.403,3.638,1.157l0.707,0.837    c2.51,2.97,2.987,8.469,2.959,10.32l-0.001,55.831h9.752v-31.23l0.653,0.498c0.893-1.17,2.339-1.763,4.295-1.763    c1.817,0,3.172,0.516,4.263,1.624c0.981,0.997,1.678,2.37,2.173,3.815c-0.011,0.014-0.022,0.027-0.033,0.04l0.064,0.049    c0.887,2.638,1.1,5.5,1.08,6.782l-0.001,22.79h-0.001l0,7.273h0.001v0h9.752v-29.904c0.007-0.378,0.007-1.372-0.108-2.737    c0.393-0.062,0.811-0.097,1.258-0.097c1.817,0,3.172,0.516,4.263,1.624c2.788,2.833,3.316,8.687,3.285,10.687l-0.001,13.154    h-0.001l-0.001,16.908h0.001v0h9.752v-29.903c0.009-0.508,0.007-2.12-0.271-4.261c0.445-0.083,0.925-0.127,1.442-0.127    c1.817,0,3.171,0.516,4.262,1.624c2.788,2.832,3.316,8.687,3.285,10.687l0,5.072h-0.001l-0.001,24.293l-4.039,13.824h0.001    L301.179,337.819z" fill="#231F20"/></g></svg>